<svg width="69" height="60" viewBox="0 0 69 60" fill="none" xmlns="http://www.w3.org/2000/svg">
<path d="M48 39.475C49.275 37 56.5686 30.1 56.5686 30.1H60.4699C60.4699 30.1 62.1126 33.7853 60.4699 35.8327C58.8273 37.8801 53.325 39.325 51.6 41.35C51.6 45.175 51.675 47.2 52.5 50.65L49.3174 49.7286C47.925 45.475 47.85 42.625 48 39.475Z" fill="#2B7285"/>
<path d="M54.8704 44.1786C52.9241 40.975 52.9241 29.7349 52.9241 29.7349L60.2996 29.3251C60.2996 29.3251 57.4313 38.7494 58.3533 43.7688C59.2752 48.7883 59.5825 48.6858 60.2996 53.1931L57.5338 52.681C56.407 49.7102 56.8168 47.3822 54.8704 44.1786Z" fill="#2B7285"/>
<g style="mix-blend-mode:multiply" opacity="0.75">
<ellipse cx="12.9746" cy="48.1" rx="10.875" ry="10.95" fill="#00C5A3"/>
</g>
<path d="M6.22013 51.3536L7.62051 51.1223C8.76723 50.9329 9.48951 50.0801 9.29927 48.9285C9.1271 47.8863 8.07676 47.2461 6.77151 47.4617L5.60893 47.6538C5.54024 47.6651 5.49698 47.699 5.50473 47.7459L5.50731 47.7616C5.52625 47.8762 5.73136 47.8691 5.76493 48.0723L6.23323 50.9071C6.26681 51.1104 6.0703 51.1696 6.08924 51.2842L6.09182 51.2999C6.09957 51.3468 6.15144 51.365 6.22013 51.3536ZM7.20669 50.9176C7.01117 50.9499 6.86725 50.8345 6.82851 50.6L6.39809 47.9945C6.37484 47.8538 6.4455 47.7886 6.5459 47.772L6.69387 47.7476C7.65035 47.5896 8.51143 48.2342 8.68274 49.2712C8.82305 50.1206 8.32699 50.7326 7.53961 50.8626L7.20669 50.9176Z" fill="#076377"/>
<path d="M10.4006 50.663L12.8367 50.2606C12.9318 50.2449 12.9611 50.1919 12.9676 50.0998L12.9936 49.5013C12.9938 49.437 12.9526 49.3849 12.8945 49.3945L12.8575 49.4006C12.6303 49.4382 12.6193 50.0288 12.3075 50.0803L11.3088 50.2453C11.1397 50.2733 11.0477 50.1439 11.0253 50.0084L10.8292 48.7882L11.643 48.6537C11.8702 48.6162 11.9456 48.941 12.0671 48.9209L12.0988 48.9157C12.1464 48.9078 12.1712 48.8609 12.1617 48.8036L12.0395 48.0636C12.0292 48.0011 11.9914 47.9698 11.9439 47.9777L11.9122 47.9829C11.7906 48.003 11.8263 48.3504 11.5991 48.388L10.7853 48.5224L10.5847 47.3082C10.5606 47.1623 10.6251 47.0928 10.7308 47.0753L11.6186 46.9287C11.9251 46.878 12.1643 47.406 12.3757 47.371L12.4021 47.3667C12.4655 47.3562 12.4956 47.3084 12.4668 47.2329L12.247 46.691C12.2166 46.605 12.1727 46.5695 12.0776 46.5852L9.77884 46.9649C9.71543 46.9754 9.67746 47.0084 9.6852 47.0553L9.68779 47.071C9.70586 47.1804 9.91098 47.1733 9.94627 47.3869L10.4128 50.2113C10.4481 50.425 10.2508 50.479 10.2697 50.5936L10.2723 50.6093C10.28 50.6562 10.3319 50.6744 10.4006 50.663Z" fill="#076377"/>
<path d="M15.6332 47.7537C16.0352 47.5909 16.2512 47.2554 16.1858 46.8594C16.098 46.3279 15.5411 46.013 14.6533 46.1597L13.3692 46.3718C13.3005 46.3832 13.2625 46.4162 13.2703 46.4631L13.2729 46.4787C13.2918 46.5934 13.4916 46.5871 13.5252 46.7904L13.9935 49.6252C14.0271 49.8284 13.8358 49.8868 13.8539 49.9962L13.8574 50.017C13.8651 50.0639 13.9117 50.083 13.9804 50.0717L15.4759 49.8246C16.3901 49.6736 16.9359 49.1659 16.8318 48.5353C16.7491 48.0351 16.3137 47.7323 15.6332 47.7537ZM14.1715 46.7264C14.1457 46.5701 14.2216 46.504 14.3273 46.4865L14.6761 46.4289C15.1834 46.3451 15.5522 46.5733 15.6314 47.0527C15.6874 47.3914 15.4689 47.6791 15.0673 47.7454L14.5917 47.824C14.4543 47.8467 14.3445 47.7738 14.3221 47.6384L14.1715 46.7264ZM15.3791 49.5676L14.9458 49.6392C14.7767 49.6671 14.6389 49.556 14.6088 49.3736L14.4022 48.123L14.9148 48.0383C15.6546 47.9161 16.118 48.2892 16.1929 48.7426C16.2652 49.1803 16.008 49.4637 15.3791 49.5676Z" fill="#076377"/>
<path d="M18.5959 49.3092L19.4203 49.173C19.4942 49.1608 19.5322 49.1278 19.5245 49.0809L19.5219 49.0652C19.5029 48.9506 19.2873 48.9594 19.2537 48.7562L18.7604 45.7703L19.3364 45.6751C19.6324 45.6262 19.7975 46.1985 19.9824 46.168L20.0458 46.1575C20.1092 46.147 20.1446 46.0983 20.1167 46.028L19.898 45.4271C19.8675 45.3411 19.8184 45.3064 19.7233 45.3221L17.0705 45.7604C16.9754 45.7761 16.94 45.8248 16.944 45.9151L16.9505 46.5457C16.9528 46.6256 16.9967 46.6612 17.0601 46.6507L17.1235 46.6402C17.3085 46.6097 17.2544 46.0191 17.5503 45.9702L18.1263 45.875L18.6196 48.861C18.6531 49.0642 18.4513 49.1243 18.4703 49.2389L18.4729 49.2546C18.4806 49.3015 18.5272 49.3205 18.5959 49.3092Z" fill="#076377"/>
<path fill-rule="evenodd" clip-rule="evenodd" d="M13.117 50.1083L13.1168 50.1104C13.1129 50.1661 13.101 50.2373 13.0551 50.2987C13.005 50.3656 12.9334 50.3966 12.8608 50.4086L10.4246 50.811C10.3746 50.8193 10.3144 50.82 10.2576 50.7973C10.1941 50.772 10.1376 50.7168 10.1239 50.6337L10.1213 50.6181C10.1084 50.5401 10.1354 50.4779 10.1614 50.4362C10.1775 50.4104 10.2023 50.3799 10.218 50.3607C10.2225 50.3552 10.2262 50.3506 10.2288 50.3473C10.2597 50.3077 10.2722 50.283 10.2644 50.2358L9.79787 47.4114C9.78995 47.3635 9.76914 47.3428 9.727 47.3147C9.72342 47.3123 9.71806 47.3089 9.7116 47.3048C9.69073 47.2916 9.65825 47.271 9.63608 47.2531C9.5996 47.2236 9.55235 47.1739 9.53938 47.0954L9.5368 47.0798C9.52437 47.0045 9.55116 46.9351 9.6023 46.8871C9.64781 46.8444 9.70489 46.825 9.75398 46.8169L12.0527 46.4372C12.1204 46.426 12.1987 46.4284 12.269 46.4749C12.3345 46.5184 12.3673 46.5837 12.3868 46.6375L12.606 47.178L12.6066 47.1795C12.63 47.241 12.6402 47.3197 12.6016 47.3936C12.5618 47.4698 12.4896 47.5042 12.4261 47.5147L12.3997 47.519C12.2813 47.5386 12.1822 47.4767 12.1195 47.4284C12.065 47.3866 12.0087 47.331 11.9587 47.2818C11.9481 47.2713 11.9377 47.2611 11.9277 47.2514C11.8655 47.1908 11.811 47.1416 11.7582 47.1095C11.707 47.0784 11.6713 47.0719 11.6426 47.0767L10.7548 47.2233C10.7413 47.2256 10.7345 47.2285 10.7317 47.2301C10.73 47.2351 10.7268 47.2505 10.7323 47.2838L10.9084 48.35L11.5742 48.24C11.5963 48.2364 11.6188 48.2227 11.6541 48.127C11.6573 48.1184 11.661 48.1078 11.6651 48.0961C11.6771 48.0617 11.6925 48.0175 11.7083 47.9844C11.7289 47.9417 11.7788 47.8529 11.8873 47.835L11.919 47.8297C11.9838 47.819 12.0513 47.8351 12.1042 47.8816C12.1541 47.9253 12.178 47.9844 12.1871 48.0392L12.3093 48.7791C12.3184 48.8339 12.3131 48.8955 12.2826 48.9507C12.2505 49.0088 12.1941 49.0519 12.1229 49.0637L12.0912 49.0689C11.9858 49.0863 11.911 49.0235 11.8764 48.9897C11.8506 48.9646 11.8215 48.9288 11.7993 48.9015C11.7919 48.8923 11.7852 48.8841 11.7796 48.8775C11.718 48.8045 11.6924 48.7976 11.667 48.8017L11.0006 48.9118L11.1729 49.984C11.1729 49.9841 11.173 49.9842 11.173 49.9843C11.1805 50.0297 11.1984 50.0632 11.2164 50.0808C11.2246 50.0888 11.2326 50.0935 11.2409 50.0961C11.2492 50.0987 11.2627 50.1009 11.2839 50.0974L12.2827 49.9324C12.3104 49.9278 12.3392 49.9114 12.3736 49.8665C12.4098 49.8191 12.4413 49.7545 12.4766 49.6747C12.4815 49.6636 12.4865 49.6521 12.4917 49.6403C12.5204 49.5744 12.5535 49.4984 12.5914 49.4368C12.6353 49.3656 12.7092 49.273 12.8327 49.2526L12.8697 49.2465C12.9539 49.2326 13.0291 49.2656 13.078 49.3209C13.1237 49.3728 13.1434 49.4393 13.1432 49.5018L13.1432 49.5048L13.117 50.1083ZM11.0249 50.0084L10.8288 48.7882L11.6426 48.6537C11.7738 48.6321 11.8544 48.7313 11.9225 48.8151C11.9723 48.8764 12.0154 48.9294 12.0667 48.9209L12.0984 48.9157C12.146 48.9078 12.1708 48.8609 12.1613 48.8036L12.0391 48.0636C12.0288 48.0011 11.991 47.9699 11.9435 47.9777L11.9118 47.9829C11.8604 47.9914 11.8371 48.0583 11.8102 48.1356C11.7735 48.2412 11.7299 48.3663 11.5987 48.388L10.7849 48.5224L10.5843 47.3082C10.5602 47.1623 10.6247 47.0928 10.7304 47.0753L11.6182 46.9287C11.7856 46.901 11.933 47.046 12.0667 47.1776C12.1777 47.2869 12.2794 47.3869 12.3753 47.3711L12.4017 47.3667C12.4651 47.3562 12.4952 47.3084 12.4664 47.2329L12.2466 46.691C12.2162 46.6051 12.1723 46.5695 12.0772 46.5852L9.77843 46.9649C9.71502 46.9754 9.67705 47.0084 9.68479 47.0553L9.68738 47.071C9.69492 47.1166 9.735 47.142 9.78173 47.1716C9.84703 47.2129 9.92529 47.2624 9.94586 47.3869L10.4124 50.2113C10.4328 50.3347 10.3757 50.4048 10.3274 50.4641C10.292 50.5075 10.2613 50.5452 10.2693 50.5937L10.2719 50.6093C10.2796 50.6562 10.3315 50.6744 10.4002 50.663L12.8363 50.2606C12.9314 50.2449 12.9607 50.1919 12.9672 50.0998L12.9932 49.5013C12.9934 49.437 12.9522 49.3849 12.8941 49.3945L12.8571 49.4006C12.7525 49.4179 12.6937 49.5525 12.6303 49.6978C12.556 49.8679 12.4753 50.0526 12.3071 50.0804L11.3084 50.2454C11.1393 50.2733 11.0473 50.1439 11.0249 50.0084ZM15.9265 47.766C16.4378 47.8292 16.7613 48.1113 16.8314 48.5353C16.9355 49.1659 16.3897 49.6736 15.4755 49.8246L13.98 50.0717C13.9113 50.083 13.8647 50.0639 13.857 50.017L13.8535 49.9962C13.8459 49.9499 13.8757 49.9127 13.9101 49.8699C13.957 49.8114 14.0125 49.7424 13.9931 49.6252L13.5248 46.7904C13.5056 46.6743 13.4322 46.6266 13.3693 46.5856C13.322 46.5548 13.2806 46.5279 13.2724 46.4787L13.2699 46.4631C13.2621 46.4162 13.3001 46.3832 13.3688 46.3718L14.6529 46.1597C15.5407 46.013 16.0976 46.3279 16.1854 46.8594C16.2353 47.1619 16.1212 47.429 15.8854 47.6108C15.8124 47.6671 15.7278 47.7152 15.6328 47.7537C15.7365 47.7504 15.8346 47.7547 15.9265 47.766ZM16.0794 47.6392C16.253 47.6749 16.4077 47.7366 16.5392 47.8239C16.7789 47.983 16.9314 48.2206 16.9794 48.5109C17.0405 48.8811 16.9079 49.2141 16.6383 49.4688C16.3726 49.7199 15.9767 49.8939 15.4999 49.9726L14.0044 50.2197C13.9546 50.2279 13.8935 50.2288 13.8358 50.2038C13.77 50.1752 13.7215 50.1174 13.709 50.0415L13.7055 50.0207C13.6928 49.9435 13.72 49.8819 13.7448 49.8418C13.7605 49.8164 13.7845 49.7866 13.7998 49.7676C13.8041 49.7622 13.8078 49.7576 13.8103 49.7543C13.8411 49.7143 13.8519 49.6911 13.8451 49.6496L13.3768 46.8148C13.3699 46.7733 13.3523 46.7548 13.3092 46.7256C13.3057 46.7233 13.3009 46.7202 13.2954 46.7166C13.2745 46.703 13.2418 46.6818 13.2178 46.6613C13.1806 46.6296 13.137 46.5794 13.1245 46.5032L13.1219 46.4876C13.1093 46.4117 13.1367 46.3413 13.1898 46.2931C13.2363 46.2508 13.2945 46.232 13.3443 46.2238L14.6285 46.0117C15.0923 45.9351 15.4872 45.9758 15.7846 46.1203C16.0867 46.2669 16.281 46.518 16.3334 46.835C16.3856 47.1512 16.2855 47.4321 16.0794 47.6392ZM16.9501 46.5457L16.9436 45.9151C16.9396 45.8248 16.975 45.7761 17.0701 45.7604L19.7229 45.3222C19.818 45.3064 19.8671 45.3411 19.8976 45.4271L20.1163 46.028C20.1442 46.0984 20.1088 46.147 20.0454 46.1575L19.982 46.168C19.9004 46.1815 19.8226 46.0774 19.7357 45.9612C19.6258 45.8143 19.5013 45.6478 19.336 45.6751L18.76 45.7703L19.2533 48.7562C19.2725 48.8723 19.351 48.9192 19.4184 48.9594C19.469 48.9896 19.5133 49.0161 19.5215 49.0652L19.5241 49.0809C19.5318 49.1278 19.4938 49.1608 19.4198 49.173L18.5955 49.3092C18.5268 49.3206 18.4802 49.3015 18.4725 49.2546L18.4699 49.239C18.4617 49.1898 18.4942 49.1506 18.5313 49.1059C18.5807 49.0464 18.6383 48.977 18.6191 48.861L18.1259 45.875L17.5499 45.9702C17.3846 45.9975 17.3285 46.1938 17.279 46.3671C17.2399 46.5041 17.2048 46.6268 17.1231 46.6403L17.0597 46.6507C16.9963 46.6612 16.9524 46.6256 16.9501 46.5457ZM18.0023 46.0475L17.5743 46.1182C17.5563 46.1212 17.5365 46.1311 17.5114 46.171C17.484 46.2146 17.4619 46.2762 17.4387 46.3546C17.4344 46.3694 17.4298 46.3853 17.4251 46.4019C17.4078 46.4627 17.3879 46.5323 17.3644 46.588C17.3378 46.6509 17.2789 46.7666 17.1476 46.7883L17.0842 46.7987C17.0198 46.8094 16.9424 46.7992 16.8807 46.7427C16.8215 46.6885 16.802 46.6145 16.8002 46.5501L16.8001 46.5487L16.7937 45.919C16.7912 45.8561 16.8011 45.7806 16.8523 45.7164C16.9046 45.6507 16.9785 45.6235 17.0456 45.6124L19.6984 45.1742C19.7662 45.163 19.8437 45.1654 19.9139 45.2092C19.9824 45.252 20.018 45.318 20.0388 45.3764C20.0389 45.3766 20.0389 45.3768 20.039 45.377L20.2567 45.9751C20.2823 46.0413 20.2864 46.1209 20.2439 46.1921C20.2022 46.2619 20.1326 46.2951 20.0699 46.3055L20.0065 46.316C19.8777 46.3373 19.7832 46.2501 19.7359 46.2002C19.6938 46.1559 19.6502 46.0975 19.6117 46.046C19.6011 46.0318 19.5909 46.0182 19.5813 46.0056C19.5309 45.9394 19.487 45.8876 19.4441 45.8546C19.4039 45.8235 19.3794 45.82 19.3605 45.8231L18.9325 45.8938L19.4013 48.7318C19.4074 48.7686 19.4235 48.7864 19.4719 48.8165C19.4758 48.8189 19.481 48.822 19.4871 48.8256C19.5095 48.839 19.5439 48.8594 19.5692 48.8794C19.6078 48.9098 19.6562 48.9606 19.6695 49.0408L19.672 49.0564C19.6847 49.133 19.6568 49.2041 19.6017 49.2525C19.5543 49.2943 19.495 49.3126 19.4443 49.321L18.6199 49.4572C18.5701 49.4654 18.509 49.4664 18.4513 49.4413C18.3855 49.4127 18.337 49.3549 18.3245 49.279L18.3219 49.2634C18.3089 49.1846 18.3369 49.1216 18.3631 49.0801C18.3802 49.053 18.4055 49.0225 18.4219 49.0027C18.4264 48.9974 18.4301 48.9929 18.4329 48.9894C18.4675 48.9463 18.4775 48.9238 18.4712 48.8854L18.0023 46.0475ZM7.64455 51.2703L6.24417 51.5016C6.19414 51.5099 6.13388 51.5106 6.07709 51.4879C6.01364 51.4626 5.95715 51.4074 5.94342 51.3243L5.94084 51.3087C5.92803 51.2312 5.9546 51.1689 5.98018 51.1271C5.99682 51.1 6.02156 51.0695 6.03749 51.0498C6.04176 51.0445 6.04539 51.0401 6.04806 51.0366C6.08105 50.9944 6.09143 50.9715 6.08483 50.9316L5.61653 48.0968C5.60993 48.0568 5.59277 48.0386 5.54793 48.0091C5.5443 48.0068 5.53942 48.0037 5.53369 48.0001C5.51228 47.9866 5.47903 47.9656 5.45455 47.9453C5.4169 47.914 5.37172 47.8636 5.35891 47.786L5.35632 47.7704C5.3426 47.6873 5.37836 47.6169 5.43028 47.5725C5.47676 47.5328 5.53404 47.5141 5.58408 47.5058L6.74665 47.3137C8.10758 47.0889 9.25725 47.7563 9.44685 48.9041C9.54827 49.518 9.40699 50.0625 9.07865 50.4791C8.75157 50.8941 8.24828 51.1706 7.64455 51.2703ZM7.05415 50.7434C7.08109 50.7658 7.12031 50.7798 7.18184 50.7696L7.51476 50.7147C7.87597 50.655 8.15991 50.4869 8.3383 50.2472C8.51602 50.0083 8.59869 49.6853 8.53433 49.2957C8.37518 48.3323 7.58475 47.7524 6.71791 47.8956L6.56994 47.92C6.55475 47.9225 6.54761 47.926 6.5449 47.9277C6.54471 47.9284 6.54448 47.9293 6.54426 47.9305C6.5432 47.9361 6.54211 47.9485 6.54567 47.9701L6.97609 50.5756C6.99147 50.6687 7.02449 50.7188 7.05415 50.7434ZM14.3193 46.6451C14.3175 46.6493 14.3129 46.6648 14.3191 46.702L14.4697 47.6139C14.475 47.6456 14.4878 47.6597 14.4979 47.6666C14.5087 47.6739 14.5301 47.6821 14.5668 47.676L15.0424 47.5975C15.2133 47.5692 15.3325 47.4964 15.4033 47.4076C15.4732 47.32 15.5044 47.2068 15.483 47.0771C15.4492 46.8722 15.357 46.7357 15.2327 46.6558C15.1062 46.5744 14.9273 46.5394 14.7001 46.5769L14.3513 46.6346C14.3296 46.6381 14.3214 46.6434 14.3193 46.6451ZM14.921 49.4912L15.3543 49.4196C15.6546 49.37 15.839 49.2812 15.9407 49.1761C16.0351 49.0783 16.0745 48.9491 16.0445 48.767C15.9861 48.4136 15.6164 48.0744 14.9388 48.1863L14.5742 48.2465L14.7564 49.3492C14.7663 49.4091 14.7919 49.447 14.818 49.4678C14.8429 49.4875 14.8766 49.4985 14.921 49.4912ZM7.6201 51.1223L6.21972 51.3536C6.15103 51.365 6.09916 51.3468 6.09142 51.2999L6.08883 51.2843C6.08071 51.2351 6.11222 51.1961 6.14821 51.1516C6.19614 51.0923 6.252 51.0232 6.23283 50.9071L5.76452 48.0723C5.74535 47.9563 5.67023 47.9088 5.6058 47.8681C5.5574 47.8375 5.51502 47.8107 5.5069 47.7616L5.50432 47.7459C5.49657 47.699 5.53983 47.6651 5.60852 47.6538L6.7711 47.4617C8.07635 47.2461 9.12669 47.8863 9.29886 48.9285C9.48911 50.0801 8.76682 50.9329 7.6201 51.1223ZM6.8281 50.6C6.86684 50.8345 7.01076 50.9499 7.20628 50.9176L7.5392 50.8626C8.32658 50.7326 8.82265 50.1207 8.68233 49.2712C8.51102 48.2342 7.64994 47.5896 6.69346 47.7476L6.5455 47.772C6.44509 47.7886 6.37443 47.8538 6.39768 47.9945L6.8281 50.6ZM14.1711 46.7264C14.1453 46.5701 14.2212 46.504 14.3269 46.4866L14.6757 46.4289C15.183 46.3451 15.5518 46.5733 15.631 47.0527C15.687 47.3914 15.4685 47.6791 15.0669 47.7455L14.5913 47.824C14.4539 47.8467 14.3441 47.7739 14.3217 47.6384L14.1711 46.7264ZM15.3787 49.5676L14.9454 49.6392C14.7763 49.6671 14.6385 49.556 14.6084 49.3736L14.4018 48.123L14.9144 48.0383C15.6542 47.9161 16.1176 48.2892 16.1925 48.7426C16.2648 49.1803 16.0076 49.4637 15.3787 49.5676Z" fill="#076377"/>
<path d="M50.1748 18.7C51.0985 17.3528 51.6906 16.6281 53.0248 16.525C51.7498 17.125 51.8998 18.1587 51.8998 21.25C50.7748 22 50.0248 22.825 49.3498 23.875C49.1998 25.3 49.1034 26.5767 48.8248 27.7652C48.1219 27.5933 48.0278 27.4969 47.3248 27.325C47.3248 24.85 47.2867 23.8871 47.7748 22.45C48.1803 21.2563 49.3115 19.9592 50.1748 18.7Z" fill="#00C5A3"/>
<g style="mix-blend-mode:multiply">
<path d="M51.971 17.2374C52.6763 16.1031 55.9016 15.9978 55.9016 15.9978C55.9016 15.9978 59.0998 15.9978 60.6557 17.2374C60.3972 19.8378 60.0748 24.85 59.3998 29.425C57.1498 30.025 55.8748 29.8583 55.8748 29.8583L52.9733 29.8583C52.9733 29.8583 52.0833 27.1605 51.971 23.5C51.9079 21.4398 51.3693 18.473 51.971 17.2374Z" fill="#00C5A3"/>
</g>
<g style="mix-blend-mode:multiply">
<path d="M47.4043 32.8861L47.9238 29.2098L48.6988 29.0469L48.4848 32.068C48.6102 32.3353 48.9572 32.9958 49.3427 33.4992C49.7282 34.0027 46.9722 38.8825 45.5461 41.2595C46.173 39.4516 47.523 35.5536 47.9073 34.4242C48.2916 33.2948 47.7321 32.9282 47.4043 32.8861Z" fill="#FE635A"/>
</g>
<g style="mix-blend-mode:multiply">
<path d="M48.1045 34.0446L51.1547 32.9373L51.1861 32.0195L48.6501 32.6836C48.4058 32.5757 47.797 32.266 47.3163 31.8902C46.8356 31.5143 43.0718 35.3712 41.25 37.3465C42.6987 36.3729 45.8228 34.2756 46.7289 33.6759C47.635 33.0761 48.0235 33.6718 48.1045 34.0446Z" fill="#FE635A"/>
</g>
<rect x="55.3097" y="31.3221" width="0.987496" height="4.71212" transform="rotate(81.8218 55.3097 31.3221)" fill="#6DC7F7"/>
<rect x="48.2134" y="25.45" width="1.02437" height="4.71213" transform="rotate(7.30403 48.2134 25.45)" fill="#6DC7F7"/>
<g style="mix-blend-mode:multiply" opacity="0.8">
<path d="M52.0294 49.5532C52.0294 49.5532 51.9953 51.7584 52.7208 52.4226C53.0319 52.7064 52.7814 52.9334 52.3947 53.0992C51.7125 53.3929 50.9297 53.333 50.2794 52.9747L49.3929 52.4859L49.4808 51.8189C49.4808 51.8189 49.8239 49.7788 49.4818 49.0759C49.1397 48.3737 52.0294 49.5532 52.0294 49.5532Z" fill="#FFDB94"/>
</g>
<g style="mix-blend-mode:multiply" opacity="0.8">
<path d="M60.0231 52.4622C60.0231 52.4622 59.989 54.6674 60.7145 55.3317C61.0255 55.6155 60.7751 55.8425 60.3883 56.0083C59.7062 56.302 58.9234 56.242 58.273 55.8837L57.3866 55.3949L57.4744 54.728C57.4744 54.728 57.8176 52.6878 57.4755 51.985C57.1333 51.2828 60.0231 52.4622 60.0231 52.4622Z" fill="#FFDB94"/>
</g>
<g style="mix-blend-mode:multiply">
<path d="M49.7332 52.7228C49.7332 52.7228 49.6245 51.5676 49.2692 51.8265C48.8778 52.1253 48.5036 52.4458 48.1487 52.7878C48.0318 52.9144 45.5658 53.8089 45.7662 54.2278C45.9661 54.6474 46.996 54.6639 48.8242 54.5679C49.5601 54.5299 52.7769 54.0033 52.7769 54.0033C52.7769 54.0033 52.8289 52.2916 52.5217 52.2427C52.2146 52.1946 50.1971 53.6204 49.7332 52.7228Z" fill="#2B7285"/>
</g>
<g style="mix-blend-mode:multiply">
<path d="M57.7268 55.6318C57.7268 55.6318 57.6182 54.4765 57.2629 54.7355C56.8714 55.0343 56.4973 55.3547 56.1423 55.6967C56.0254 55.8233 53.5594 56.7178 53.7599 57.1368C53.9597 57.5563 54.9897 57.5729 56.8179 57.4768C57.5537 57.4389 60.7706 56.9122 60.7706 56.9122C60.7706 56.9122 60.8225 55.2005 60.5154 55.1517C60.2083 55.1035 58.1908 56.5294 57.7268 55.6318Z" fill="#2B7285"/>
</g>
<path d="M47.492 27.4314C47.492 27.4314 47.5343 29.3856 48.3717 28.8463C48.7098 28.5357 49.3845 25.3934 47.492 27.4314Z" fill="#FFDB94"/>
<path d="M48.075 45.55L52.2 46.2999L52.35 48.475L48.225 47.725L48.075 45.55Z" fill="#00C5A3"/>
<path d="M8.39981 39.4C6.76913 39.9704 3.43617 42.4189 3.14981 47.65" stroke="white"/>
<g style="mix-blend-mode:multiply">
<path d="M62.4237 20.3133C61.275 17.6499 60.2083 16.6418 59.775 16.7499C59.496 16.6935 58.725 17.0499 58.8917 19.1094C59.0466 21.0224 61.1912 24.0357 62.1 25.5249C61.1514 27.0562 57.4105 29.7631 56.25 30.4749L56.808 32.7417C59.1175 31.8831 64.0065 27.2672 64.425 26.2749C64.8436 25.2826 63.2056 22.1263 62.4237 20.3133Z" fill="#00C5A3"/>
</g>
<g style="mix-blend-mode:multiply" opacity="0.7">
<path fill-rule="evenodd" clip-rule="evenodd" d="M38.4027 39.716C38.5023 39.7225 38.6108 39.7296 38.7387 39.7344C38.987 39.7435 39.1809 39.9523 39.1718 40.2006C39.1626 40.449 38.9538 40.6429 38.7055 40.6338C38.5322 40.6274 38.4041 40.619 38.2992 40.6122C38.1204 40.6006 38.0089 40.5934 37.8558 40.6075C37.8755 40.6407 37.894 40.675 37.9111 40.7104C38.0383 40.9726 38.0771 41.2609 38.0365 41.5352C38.1066 41.5317 38.171 41.5328 38.2374 41.5376C38.3019 41.5423 38.3473 41.5473 38.3918 41.5523C38.4637 41.5604 38.5335 41.5682 38.6779 41.5736C38.9263 41.5827 39.1202 41.7915 39.111 42.0398C39.1019 42.2882 38.8931 42.4821 38.6448 42.4729C38.4745 42.4667 38.3258 42.451 38.2387 42.4418C38.2091 42.4387 38.1866 42.4363 38.1729 42.4353C38.1105 42.4308 38.0417 42.4299 37.8462 42.4658C37.7105 42.4907 37.5772 42.4935 37.4493 42.4769C37.4152 42.4997 37.3798 42.5211 37.3431 42.541C36.9565 42.7505 36.5615 42.9987 36.1538 43.2867C35.9403 43.4375 35.7015 43.5141 35.4638 43.5237C35.3444 43.7652 35.1541 43.9731 34.9012 44.1101C34.5146 44.3196 34.1196 44.5679 33.7119 44.8558C33.5076 45.0002 33.2801 45.0765 33.0526 45.0912C32.9324 45.3167 32.7489 45.5103 32.5091 45.6403C32.1226 45.8497 31.7276 46.098 31.3199 46.3859C31.2384 46.4435 31.1532 46.4903 31.0658 46.5266C30.9943 46.655 30.9012 46.7735 30.7869 46.8763C30.425 47.2018 30.0539 47.55 29.6711 47.9206C29.5238 48.0631 29.3539 48.1638 29.1746 48.2234C29.112 48.4252 29.0033 48.6148 28.8485 48.7743C28.6692 48.9592 28.4875 49.1476 28.3031 49.3393C28.0251 49.6284 27.7467 49.893 27.4679 50.1341C27.2991 50.2801 27.1064 50.3747 26.9067 50.4201C26.7148 50.7217 26.4075 50.9467 26.0261 51.0134C25.1132 51.1729 24.2525 51.1027 23.4689 50.8783C22.7522 50.6731 22.363 49.9128 22.5442 49.2053C22.7275 48.49 23.444 48.0284 24.1718 48.2368C24.5886 48.3561 25.038 48.3967 25.5229 48.3217C25.5917 48.2146 25.6764 48.1158 25.7767 48.029C25.9898 47.8448 26.2088 47.6371 26.4334 47.4036C26.6199 47.2096 26.8043 47.0185 26.9868 46.8304C27.14 46.6724 27.321 46.5616 27.5132 46.4977C27.5799 46.2826 27.6988 46.0817 27.8694 45.9166C28.2708 45.528 28.6662 45.1569 29.057 44.8054C29.1721 44.7019 29.2992 44.6228 29.4326 44.5676C29.5286 44.395 29.6628 44.2412 29.8333 44.1207C30.3125 43.7822 30.7956 43.4771 31.2862 43.2113C31.4567 43.1189 31.636 43.0691 31.8138 43.0574C31.9104 42.8767 32.0483 42.7157 32.2254 42.5906C32.7045 42.2521 33.1876 41.947 33.6782 41.6812C33.8585 41.5835 34.0486 41.5334 34.2365 41.5257C34.3336 41.3298 34.4781 41.1551 34.6673 41.0215C35.1465 40.683 35.6295 40.3778 36.1201 40.112C36.3706 39.9763 36.6401 39.9325 36.8962 39.9664C37.0392 39.8702 37.2038 39.8009 37.3855 39.7675C37.8594 39.6804 38.0858 39.6952 38.4027 39.716ZM35.5761 42.586C35.5528 42.4816 35.5173 42.3787 35.4692 42.2796C35.3811 42.0978 35.2579 41.944 35.1119 41.8236C35.1341 41.7986 35.159 41.776 35.1865 41.7566C35.5574 41.4946 35.927 41.2563 36.2974 41.0437C36.2921 41.1438 36.2975 41.2455 36.3142 41.3472C36.3509 41.5702 36.4393 41.7746 36.5659 41.9468C36.258 42.1283 35.9481 42.3301 35.6346 42.5516C35.6158 42.5649 35.5962 42.5763 35.5761 42.586ZM34.1241 42.4637C34.1183 42.4665 34.1126 42.4694 34.107 42.4725C33.6522 42.7188 33.1994 43.0045 32.7446 43.3257C32.7341 43.3331 32.7241 43.3409 32.7143 43.3492C32.8628 43.4702 32.9879 43.6256 33.0772 43.8097M32.6723 44.006L33.0772 43.8097C33.1267 43.9117 33.1628 44.0177 33.1861 44.1253C33.1883 44.1238 33.1905 44.1223 33.1927 44.1207C33.6247 43.8155 34.0499 43.5477 34.4724 43.3188C34.516 43.2952 34.5549 43.2636 34.588 43.2262C34.4807 43.1376 34.3852 43.0304 34.3064 42.9058C34.2188 42.7672 34.1584 42.6175 34.1241 42.4637M31.6798 44.0217C31.3244 44.2159 30.9701 44.434 30.6151 44.6742C30.7333 44.7498 30.8419 44.8461 30.9355 44.9625C31.0421 45.0948 31.1206 45.2424 31.1715 45.397C31.4769 45.1949 31.7793 45.0121 32.0804 44.849C32.1058 44.8352 32.1296 44.8187 32.1516 44.7999C32.0421 44.7105 31.9446 44.6017 31.8645 44.4749C31.7748 44.333 31.7136 44.1794 31.6798 44.0217ZM30.2368 45.5298C30.2461 45.5415 30.2547 45.5535 30.2627 45.5659C30.2537 45.5544 30.2451 45.5424 30.2368 45.5298ZM29.3484 45.757C29.0678 46.0152 28.7837 46.2842 28.4953 46.5633C28.4938 46.5647 28.4924 46.5662 28.4909 46.5676C28.6295 46.6368 28.7588 46.7326 28.8715 46.8547C28.9712 46.9627 29.0505 47.0834 29.1095 47.2116C29.3856 46.9453 29.6568 46.6894 29.9239 46.4444C29.7468 46.3402 29.5908 46.1922 29.4725 46.005C29.4222 45.9256 29.3809 45.8425 29.3484 45.757ZM27.5796 47.5119C27.4155 47.6812 27.2498 47.8531 27.0821 48.0274C26.9063 48.2103 26.7322 48.3798 26.5601 48.5368C26.8043 48.7139 26.9891 48.9749 27.0747 49.28C27.2669 49.1054 27.4602 48.9174 27.6544 48.7155C27.8376 48.5249 28.0185 48.3375 28.197 48.1534C28.0462 48.0781 27.9068 47.9717 27.7881 47.8347C27.7022 47.7355 27.6327 47.6267 27.5796 47.5119ZM25.3118 49.2501C24.8209 49.2838 24.3572 49.226 23.9241 49.102C23.7238 49.0447 23.4841 49.163 23.4161 49.4287C23.346 49.7023 23.5053 49.9526 23.7167 50.0131C24.353 50.1953 25.0466 50.2568 25.7846 50.1411C25.7154 50.0821 25.651 50.0149 25.5927 49.9397C25.4339 49.7345 25.3409 49.4951 25.3118 49.2501ZM42.4625 41.0754C42.6357 40.8971 42.9206 40.8931 43.0988 41.0663L42.7852 41.389C43.0988 41.0663 43.0988 41.0663 43.0988 41.0663L43.099 41.0665L43.0994 41.0669L43.1062 41.0735L43.1262 41.093C43.1435 41.11 43.1685 41.1346 43.1998 41.1655C43.2622 41.2273 43.3496 41.3143 43.4496 41.4157C43.6483 41.6173 43.9021 41.8808 44.1096 42.1172C44.139 42.1506 44.1665 42.1852 44.1921 42.2208C44.4733 42.2773 44.7387 42.4286 44.9398 42.6704C45.3289 43.1381 45.6868 43.5443 46.0378 43.8858C46.156 44.0008 46.2493 44.1331 46.3174 44.2754C46.5797 44.3392 46.8255 44.4866 47.0145 44.7138C47.4036 45.1815 47.7615 45.5877 48.1125 45.9292C48.2906 46.1025 48.2945 46.3874 48.1212 46.5655C47.9479 46.7436 47.663 46.7476 47.4849 46.5742C47.1176 46.2168 46.7531 45.8045 46.3759 45.3532C46.3193 45.5152 46.2322 45.6686 46.1143 45.804C46.0252 45.9064 45.9244 45.9916 45.816 46.0593C46.1837 46.497 46.5532 46.9133 46.9334 47.2832C47.1005 47.4458 47.3529 47.4371 47.5103 47.2564C47.6735 47.0689 47.9577 47.0493 48.1452 47.2125C48.3326 47.3757 48.3522 47.66 48.189 47.8474C47.6952 48.4145 46.8462 48.454 46.3058 47.9283C45.8545 47.4891 45.4261 46.9985 45.0152 46.5045C44.9414 46.4159 44.8805 46.32 44.8323 46.2195C44.6145 46.1667 44.4065 46.0556 44.2311 45.8849C43.7797 45.4457 43.3514 44.9551 42.9405 44.4612C42.9199 44.4364 42.9002 44.411 42.8816 44.3852C42.612 44.331 42.3563 44.1896 42.1573 43.963C41.7937 43.5489 41.7152 43.4659 41.3149 43.0873C41.1344 42.9165 41.1265 42.6317 41.2972 42.4511C41.468 42.2706 41.7528 42.2627 41.9334 42.4335C42.2883 42.7692 42.4137 42.8954 42.6713 43.1852C42.7375 42.9465 42.8672 42.7234 43.059 42.5451C43.1 42.507 43.1427 42.472 43.1868 42.4401C43.0582 42.3029 42.9255 42.1661 42.8087 42.0476C42.7119 41.9494 42.6273 41.8651 42.5669 41.8054C42.5368 41.7756 42.5127 41.752 42.4963 41.7359L42.4776 41.7176L42.4729 41.713L42.4718 41.712L42.4716 41.7117C42.2934 41.5385 42.2893 41.2536 42.4625 41.0754ZM43.8751 44.1741C43.9329 44.1333 43.9884 44.0872 44.0409 44.0357C44.2167 43.8632 44.3367 43.6525 44.4003 43.4278C44.7121 43.7972 45.016 44.1386 45.321 44.443C45.2557 44.4849 45.193 44.5334 45.1337 44.5885C44.9625 44.7476 44.8409 44.9424 44.7696 45.1521C44.4666 44.8503 44.1699 44.5201 43.8751 44.1741Z" fill="#00C5A3"/>
</g>
<g style="mix-blend-mode:multiply" opacity="0.5">
<path fill-rule="evenodd" clip-rule="evenodd" d="M38.4027 39.716C38.5023 39.7225 38.6108 39.7296 38.7387 39.7344C38.987 39.7435 39.1809 39.9523 39.1718 40.2006C39.1626 40.449 38.9538 40.6429 38.7055 40.6338C38.5322 40.6274 38.4041 40.619 38.2992 40.6122C38.0224 40.5943 37.9068 40.5868 37.5481 40.6527C37.3366 40.6915 37.1562 40.921 37.2023 41.2012C37.2475 41.4761 37.4797 41.6181 37.6836 41.5806C37.9289 41.5355 38.0773 41.5261 38.2374 41.5376C38.3019 41.5423 38.3473 41.5473 38.3918 41.5523C38.4637 41.5604 38.5335 41.5682 38.6779 41.5736C38.9263 41.5827 39.1202 41.7915 39.111 42.0398C39.1019 42.2882 38.8931 42.4821 38.6448 42.4729C38.4745 42.4667 38.3258 42.451 38.2387 42.4418C38.2091 42.4387 38.1866 42.4363 38.1729 42.4353C38.1105 42.4308 38.0417 42.4299 37.8462 42.4658C37.1028 42.6024 36.4336 42.0736 36.3142 41.3472C36.1956 40.626 36.6498 39.9026 37.3855 39.7675C37.8594 39.6804 38.0858 39.6952 38.4027 39.716ZM42.4625 41.0754C42.6357 40.8971 42.9206 40.8931 43.0988 41.0663L42.8056 41.368C43.0988 41.0663 43.0988 41.0663 43.0988 41.0663L43.099 41.0665L43.0994 41.0669L43.1062 41.0735L43.1262 41.093C43.1435 41.11 43.1685 41.1346 43.1998 41.1655C43.2622 41.2273 43.3496 41.3143 43.4496 41.4157C43.6483 41.6173 43.9021 41.8808 44.1096 42.1172C44.5933 42.6679 44.5649 43.5215 44.0409 44.0357C43.5028 44.5637 42.6536 44.5281 42.1573 43.963C41.7937 43.5489 41.7152 43.4659 41.3149 43.0873C41.1344 42.9165 41.1264 42.6317 41.2972 42.4511C41.468 42.2706 41.7528 42.2627 41.9334 42.4335C42.3552 42.8325 42.4529 42.9356 42.8336 43.3692C42.9915 43.549 43.2439 43.5568 43.4105 43.3933C43.5913 43.216 43.6039 42.9052 43.4334 42.711C43.2431 42.4943 43.0037 42.2454 42.8087 42.0476C42.7119 41.9494 42.6273 41.8651 42.5669 41.8054C42.5368 41.7756 42.5127 41.752 42.4963 41.7359L42.4776 41.7176L42.4729 41.713L42.4718 41.712L42.4716 41.7117C42.2934 41.5385 42.2893 41.2536 42.4625 41.0754ZM33.6782 41.6812C34.3444 41.3202 35.1445 41.6099 35.4692 42.2796C35.7879 42.9367 35.5518 43.7576 34.9012 44.1101C34.5146 44.3196 34.1196 44.5679 33.7119 44.8558C33.0939 45.2924 32.264 45.1069 31.8645 44.4749C31.4738 43.857 31.6232 43.016 32.2254 42.5906C32.7045 42.2521 33.1876 41.947 33.6782 41.6812ZM34.6594 42.6723C34.5456 42.4375 34.2965 42.3698 34.107 42.4725C33.6522 42.7188 33.1994 43.0045 32.7446 43.3257C32.5473 43.4651 32.4817 43.7669 32.6252 43.994C32.7599 44.2071 33.0112 44.2489 33.1927 44.1207C33.6247 43.8155 34.0499 43.5477 34.4724 43.3188C34.6774 43.2077 34.7794 42.9196 34.6594 42.6723ZM45.1337 44.5885C45.6863 44.0749 46.534 44.1361 47.0145 44.7138C47.4036 45.1815 47.7615 45.5877 48.1125 45.9292C48.2906 46.1025 48.2945 46.3874 48.1212 46.5655C47.9479 46.7436 47.663 46.7476 47.4849 46.5742C47.1003 46.2001 46.7189 45.7656 46.3226 45.2893C46.1682 45.1037 45.9159 45.0902 45.7464 45.2478C45.5624 45.4188 45.5406 45.7289 45.7071 45.929C46.1108 46.4143 46.5157 46.8768 46.9334 47.2832C47.1005 47.4458 47.3529 47.4371 47.5103 47.2564C47.6735 47.0689 47.9577 47.0493 48.1452 47.2125C48.3326 47.3757 48.3522 47.66 48.189 47.8474C47.6952 48.4145 46.8462 48.454 46.3058 47.9283C45.8545 47.4891 45.4261 46.9985 45.0152 46.5045C44.5467 45.9414 44.5956 45.0886 45.1337 44.5885ZM29.057 44.8054C29.6182 44.3007 30.4647 44.3774 30.9355 44.9625C31.3947 45.533 31.3334 46.3849 30.7869 46.8763C30.425 47.2018 30.0539 47.55 29.6711 47.9206C29.1293 48.445 28.2804 48.403 27.7881 47.8347C27.3082 47.2808 27.3418 46.4273 27.8694 45.9166C28.2708 45.528 28.6662 45.1569 29.057 44.8054ZM30.2344 45.5268C30.0822 45.3376 29.8299 45.3207 29.6588 45.4746C29.2777 45.8173 28.8905 46.1808 28.4953 46.5633C28.3137 46.7391 28.2988 47.0497 28.4683 47.2454C28.6254 47.4266 28.8778 47.4359 29.0451 47.2739C29.4342 46.8972 29.8135 46.5413 30.1851 46.2071C30.3711 46.0399 30.3983 45.7304 30.2344 45.5268ZM22.5442 49.2053C22.7275 48.49 23.444 48.0284 24.1718 48.2368C24.607 48.3614 25.0777 48.4002 25.5872 48.3111C26.3316 48.181 26.9963 48.7155 27.1101 49.4426C27.223 50.1648 26.7632 50.8846 26.0261 51.0134C25.1132 51.1729 24.2525 51.1027 23.4689 50.8783C22.7522 50.6731 22.363 49.9128 22.5442 49.2053ZM23.9241 49.102C23.7238 49.0447 23.4841 49.163 23.4161 49.4287C23.346 49.7023 23.5053 49.9526 23.7167 50.0131C24.3778 50.2024 25.1008 50.2614 25.8711 50.1268C26.0827 50.0898 26.2648 49.8623 26.2209 49.5817C26.1778 49.3061 25.9463 49.162 25.7421 49.1977C25.0902 49.3116 24.4817 49.2617 23.9241 49.102Z" fill="#00C5A3"/>
</g>
<path d="M56.8076 32.7418C59.1171 31.8832 64.0061 27.2673 64.4246 26.275C63.4496 25.975 63.2246 25.975 62.0996 25.5249C61.151 27.0562 57.4101 29.7631 56.2496 30.475L56.8076 32.7418Z" fill="#00C5A3"/>
<g style="mix-blend-mode:multiply" opacity="0.75">
<path d="M66.1498 39.4L66.1498 0.100025L26.8498 0.100022" fill="#E2F4FE"/>
</g>
<ellipse opacity="0.11" cx="33.3748" cy="57.85" rx="33.075" ry="1.2" fill="#2B7285"/>
<g style="mix-blend-mode:multiply">
<path d="M56.1739 17.6499C55.3505 17.6499 54.6835 16.9814 54.6835 16.157V15.0339C53.3117 15.0339 52.1998 13.9199 52.1998 12.5464V9.51032C52.1998 7.87522 53.5221 6.54993 55.1558 6.54993C56.7086 6.54993 57.9528 7.8387 57.8981 9.39227L57.6642 16.2079C57.6356 17.0127 56.977 17.6499 56.1739 17.6499Z" fill="#FFDB94"/>
</g>
<path d="M57.2998 10.45V12.4C57.2998 12.4 58.536 12.3112 58.499 11.4244C58.4605 10.5387 57.2998 10.45 57.2998 10.45Z" fill="#FFDD6A"/>
<ellipse cx="55.125" cy="10.45" rx="0.374998" ry="0.3" fill="#003147"/>
<ellipse cx="52.5748" cy="10.45" rx="0.375" ry="0.3" fill="#003147"/>
<g style="mix-blend-mode:multiply">
<path d="M53.8497 10.45L52.9497 12.1H53.8497V10.45Z" fill="#FFDD6A"/>
</g>
<g style="mix-blend-mode:multiply">
<path d="M55.1027 12.4L53.6997 13.2704C53.6997 13.2704 54.3487 14.1269 54.8884 13.5508C55.4275 12.9747 55.1027 12.4 55.1027 12.4Z" fill="#FFDB94"/>
</g>
<g style="mix-blend-mode:multiply">
<path d="M56.26 9.06072C56.26 9.06072 52.7237 9.03482 52.5083 7.72349C52.2929 6.41087 56.317 4.05049 57.834 6.71329C59.351 9.37609 58.0488 14.5761 58.7082 14.7049C59.3676 14.8338 56.2594 14.7943 56.2594 14.7943L56.26 9.06072Z" fill="#2B7285"/>
</g>
<path d="M56.9248 32.2001C56.9248 32.2001 54.2409 33.6923 53.88 33.2855C53.5191 32.8787 55.2771 31.6422 55.2771 31.6422L54.5962 31.6469C54.5962 31.6469 55.4003 30.6971 56.3998 30.775L56.9248 32.2001Z" fill="#FFDB94"/>
</svg>
