<svg width="65" height="57" viewBox="0 0 65 57" fill="none" xmlns="http://www.w3.org/2000/svg">
<g style="mix-blend-mode:multiply" opacity="0.25">
<path d="M13.5624 27.465C16.9959 38.185 28.4122 44.0725 39.061 40.6161C40.6176 40.111 42.0717 39.434 43.4085 38.6134C51.2213 33.8172 55.0573 24.1009 52.1253 14.9486C48.6914 4.22897 37.2755 -1.65925 26.627 1.79708C15.9786 5.2534 10.1293 16.7453 13.5624 27.465Z" fill="#FFDB94"/>
</g>
<path d="M26.7474 30.6923C26.1476 34.1778 28.8284 35.7058 28.9754 35.8705C29.1224 36.0353 28.7284 36.0558 28.358 36.8585C27.9876 37.6612 27.9876 37.97 27.9876 37.97C24.5918 36.1793 25.1489 33.4881 25.1489 31.2775C24.5734 31.0174 24.2536 30.4323 24.2536 30.2372C24.2837 29.614 24.6373 30.1722 25.1489 30.3022C24.4455 29.7821 23.87 29.3269 24.3176 28.6118C24.7344 27.9458 27.195 28.0916 26.7474 30.6923Z" fill="#C3A35A"/>
<g style="mix-blend-mode:multiply" opacity="0.8">
<path d="M14.7367 28.8198C16.2066 29.0657 17.5837 28.1578 17.8122 26.7923L18.1235 24.9319C20.5737 25.3419 22.8691 23.8287 23.25 21.5523L24.0915 16.5225C24.5447 13.8136 22.5479 11.2216 19.6321 10.7338C16.8594 10.2699 14.2814 12.0338 13.9462 14.6244L12.4762 25.9873C12.3024 27.327 13.3022 28.5797 14.7367 28.8198Z" fill="#FFDB94"/>
</g>
<path opacity="0.8" d="M14.7446 16.4998L14.1526 20.0386C14.1526 20.0386 12.2748 19.5593 12.6019 17.9602C12.9286 16.3611 14.7446 16.4998 14.7446 16.4998Z" fill="#F4D39A"/>
<ellipse cx="0.666197" cy="0.618911" rx="0.666197" ry="0.618911" transform="matrix(-0.986291 -0.165013 -0.165014 0.986291 19.2256 16.79)" fill="#003147"/>
<ellipse cx="0.666196" cy="0.618911" rx="0.666196" ry="0.618911" transform="matrix(-0.986291 -0.165013 -0.165013 0.986291 23.3687 17.4832)" fill="#003147"/>
<g style="mix-blend-mode:multiply" opacity="0.8">
<path d="M20.7688 17.6757L22.0381 20.7259L20.307 20.4363L20.7688 17.6757Z" fill="#E8C585"/>
</g>
<g style="mix-blend-mode:multiply" opacity="0.8">
<path d="M18.0719 21.2269L20.8057 21.6843C20.8057 21.6843 20.4752 23.003 19.2339 22.676C17.9936 22.3491 18.0719 21.2269 18.0719 21.2269Z" fill="#E8C585"/>
</g>
<g style="mix-blend-mode:multiply">
<path d="M15.529 14.9288C15.529 14.9288 23.1596 16.1505 24.0746 13.5393C24.989 10.9284 17.1255 4.63803 12.9416 9.54847C8.75806 14.4594 9.78219 25.5861 8.31654 25.6125C6.84998 25.6387 13.565 26.6791 13.565 26.6791L15.529 14.9288Z" fill="#FFDD6A"/>
</g>
<ellipse cx="0.31898" cy="0.255182" rx="0.31898" ry="0.255182" transform="matrix(-0.986292 -0.165012 -0.165015 0.986291 10.9473 36.48)" stroke="white" stroke-width="1.39292"/>
<g style="mix-blend-mode:multiply">
<path d="M17.965 27.6313C17.965 27.6313 14.9292 30.152 12.8744 26.6806C12.8744 26.6806 1.48901 25.4904 3.02012 53.0504L24.0251 53.0504C24.0251 53.0504 23.9983 39.247 17.965 27.6313Z" fill="#D8D8D8"/>
</g>
<path d="M23.8703 41.1652C25.328 40.3415 26.086 40.681 26.1403 41.3866C22.6524 42.5492 25.642 45.8549 24.1844 45.5943C23.2181 45.4215 22.5158 45.1647 22.1541 46.314C21.7923 47.4634 20.4867 47.1861 19.6542 47.0372C18.8217 46.8884 17.7328 46.5606 18.023 45.7936C18.3042 45.0506 18.6771 45.0379 19.6829 45.2178C21.1302 45.4766 21.7851 42.3436 23.8703 41.1652Z" fill="#C3A35A"/>
<g style="mix-blend-mode:multiply" opacity="0.8">
<path d="M27.722 37.7322C28.4164 34.7404 31.7724 33.2353 34.4684 34.7065L34.7154 34.8414C37.1306 36.1594 37.9696 39.2186 36.5646 41.5843L33.8216 46.2029C32.5937 48.2704 30.0185 49.1001 27.8147 48.1382L26.2363 47.4494C23.3204 46.1768 23.0805 42.1332 25.8255 40.5248C26.7478 39.9844 27.4073 39.0883 27.649 38.0469L27.722 37.7322Z" fill="#00C5A3"/>
</g>
<g style="mix-blend-mode:multiply" opacity="0.8">
<path d="M50.9443 28.5632C49.309 28.8358 47.7622 27.7309 47.4895 26.0953L47.1181 23.8671C44.3917 24.3215 41.8132 22.4794 41.3588 19.7533L40.3547 13.7291C39.814 10.4852 42.0052 7.41647 45.2494 6.87574C48.3351 6.36142 51.2318 8.50714 51.6396 11.6084L53.4273 25.2106C53.638 26.815 52.5398 28.2973 50.9443 28.5632Z" fill="#7C5600"/>
</g>
<path d="M33.6667 36.6511C32.654 36.1313 32.1362 35.5492 32.6154 34.4635C30.6482 33.4536 29.3502 31.0545 30.1796 29.4388L31.7689 26.305C32.7559 24.3824 35.1828 23.3892 37.5236 24.5908C39.7499 25.7337 40.4362 28.3736 39.4214 30.1618C39.4214 30.1618 36.509 35.1506 36.238 35.4879C35.9669 35.8253 34.8179 37.2421 33.6667 36.6511Z" fill="#C3A35A"/>
<ellipse cx="0.765558" cy="0.701761" rx="0.765558" ry="0.701761" transform="matrix(-0.986392 0.164411 0.164411 0.986392 46.4414 14.1621)" fill="#303030"/>
<ellipse cx="0.701761" cy="0.701757" rx="0.701761" ry="0.701757" transform="matrix(-0.986392 0.16441 0.164412 0.986392 42.3975 14.8965)" fill="#303030"/>
<path d="M43.7612 15.2637L42.3139 18.9974L44.3276 18.6618L43.7612 15.2637Z" fill="#7C5600"/>
<path d="M47.1372 19.4963L43.9908 20.0208C43.9908 20.0208 44.3656 21.5074 45.7934 21.1349C47.2219 20.7619 47.1372 19.4963 47.1372 19.4963Z" fill="#7C5600"/>
<g style="mix-blend-mode:multiply">
<path d="M53.4013 25.2298C53.4013 25.2298 50.8406 28.8375 47.268 26.0735C47.268 26.0735 38.1841 22.6203 39.7112 53.0506L61.7261 53.0506C61.7261 51.9872 64.0929 28.1198 53.4013 25.2298Z" fill="#FFDD6A"/>
</g>
<g style="mix-blend-mode:multiply" opacity="0.8">
<path d="M50.5981 13.0983L51.3114 17.3774C51.3114 17.3774 53.3539 16.8373 52.967 14.9023C52.5799 12.9677 50.5981 13.0983 50.5981 13.0983Z" fill="#7C5600"/>
</g>
<g style="mix-blend-mode:multiply">
<path d="M52.7688 13.7196C52.7688 13.7196 53.7005 5.4869 47.0914 5.33621C40.4832 5.18499 39.8035 10.6385 39.8035 10.6385C39.7346 10.8562 39.7031 11.0544 39.701 11.2351C39.6884 12.3303 41.027 12.8881 41.8252 12.1385C42.312 11.6815 42.9967 11.129 43.7345 10.8175C44.6183 10.4444 45.3587 10.9171 45.7896 11.3248C46.0113 11.5348 46.1727 11.7982 46.2925 12.0797C46.5584 12.7081 47.0837 12.9753 47.5675 13.0817C48.0623 13.1906 48.5709 13.0485 48.9792 12.749C49.0327 12.7101 49.0868 12.6748 49.1412 12.6431C49.6387 12.3521 50.2759 12.648 50.3629 13.2056L50.512 14.2938C50.5404 14.5042 50.811 14.5676 50.9324 14.3937C51.2056 14.0035 51.7363 13.6454 52.7688 13.7196Z" fill="#2B7285"/>
</g>
<path opacity="0.604283" d="M53.7697 25.9613L53.613 26.0538L55.519 29.1864L51.4422 29.1662L51.4401 29.3452L55.8417 29.3671L53.7697 25.9613Z" fill="white"/>
<path opacity="0.604283" d="M47.321 26.1563L47.1664 26.0657L45.1521 28.4981L49.4485 29.2523L49.4628 29.1118L45.4561 28.4085L47.321 26.1563Z" fill="white"/>
<ellipse cx="0.574166" cy="0.574163" rx="0.574166" ry="0.574163" transform="matrix(-0.889625 -0.456691 -0.456698 0.889622 36.1924 29.0117)" fill="#303030"/>
<ellipse cx="0.574162" cy="0.574164" rx="0.574162" ry="0.574164" transform="matrix(-0.889623 -0.456696 -0.456693 0.889625 33.4986 27.6865)" fill="#303030"/>
<path opacity="0.5" d="M34.0767 28.553L31.8958 29.7281L33.1444 30.3691L34.0767 28.553Z" fill="#7C5600"/>
<path d="M33.7549 31.9731L31.4847 30.8077C31.4847 30.8077 31.0029 31.9657 32.0984 32.4061C33.1946 32.8464 33.7549 31.9731 33.7549 31.9731Z" fill="#7C5600"/>
<g style="mix-blend-mode:multiply" opacity="0.5">
<path d="M38.3944 30.8139L37.4621 32.6301C37.4621 32.6301 38.5571 33.088 38.9492 32.246C39.341 31.4041 38.3944 30.8139 38.3944 30.8139Z" fill="#7C5600"/>
</g>
<path d="M30.994 34.8154C31.0916 38.281 35.2847 39.6797 35.4631 39.8075C35.6415 39.9353 35.8444 40.0537 35.3787 40.9954C34.913 41.9372 34.4178 41.7796 34.4178 41.7796C30.4033 41.3708 29.9652 37.8244 29.5263 35.7045C28.9045 35.5731 28.4715 35.0775 28.4328 34.8904C28.3388 34.2866 28.8 34.7494 29.3327 34.7692C28.5325 34.4146 27.8719 34.0962 28.1734 33.3185C28.4542 32.5944 30.9211 32.2295 30.994 34.8154Z" fill="#C4A35A"/>
<path d="M27.9228 44.4459C29.8137 43.753 30.7293 44.3497 31.3529 45.0368C32.3009 46.1479 32.2157 48.2277 29.3198 49.2626C27.4578 49.928 27.5818 48.727 26.6146 49.5804C25.5301 50.5374 24.1731 50.1835 23.3511 49.8778C22.529 49.5722 22.1737 49.3901 22.4215 48.5456C22.6557 47.7471 23.351 47.78 24.1564 48.2296C25.5045 48.9821 25.5591 45.3121 27.9228 44.4459Z" fill="#C3A35A"/>
<g style="mix-blend-mode:multiply">
<path fill-rule="evenodd" clip-rule="evenodd" d="M29.574 15.6231C30.3517 14.7439 31.6378 14.7164 32.4466 15.5619L32.7145 15.842L32.9442 15.5922C33.7376 14.7297 35.024 14.7297 35.8174 15.5922C36.6108 16.4548 36.6108 17.8533 35.8174 18.7158L32.7703 21.2737L29.6303 18.7461C28.8215 17.9006 28.7963 16.5024 29.574 15.6231Z" fill="#FE635A"/>
</g>
<path d="M10.3862 32.0855C9.08315 30.0702 7.11293 30.7632 6.29155 32.3408C4.59285 35.1633 5.19451 39.2888 6.16831 41.6465C7.14211 44.0042 8.21078 47.9785 10.9047 49.6069C15.1189 51.2521 15.1802 51.1297 18.9557 49.8629C20.9124 49.2064 22.2271 48.5371 23.1683 47.9679C24.4444 47.1963 25.5734 46.1969 26.6266 45.1412L27.1028 44.664C27.4368 44.3292 27.7266 43.9528 27.965 43.5442C28.117 43.2836 27.8416 42.9828 27.5686 43.1113L26.3815 43.6699C26.9921 42.8558 27.6844 42.1062 28.4475 41.4329L29.3621 40.6259C29.3749 40.6146 29.3868 40.6023 29.3977 40.5892C29.6905 40.2379 29.5172 39.8113 29.0819 39.9513C28.0341 40.2882 26.4354 41.3319 25.0407 43.0445C23.1185 45.4049 19.7645 46.5997 18.3278 46.902C9.83941 47.0166 12.4717 35.3108 10.3862 32.0855Z" fill="#FFDB94"/>
<path d="M55.4482 35.0254C56.5778 31.2434 58.4611 31.5687 59.0381 32.75C61.3487 35.8573 59.223 43.6372 57.8612 45.6726C56.4994 47.708 56.1084 48.5351 52.6914 49.9887C48.4951 51.7737 44.6377 50.5918 42.6161 50.0146C40.5946 49.4374 37.646 46.9229 37.646 46.9229C37.1011 47.0421 36.6596 47.0048 36.3248 46.8601C35.8601 46.6593 35.5821 46.1873 35.2412 45.813L34.9173 45.4573C34.6187 45.1293 34.398 44.7382 34.2718 44.313C34.2299 44.1719 34.381 44.0516 34.5091 44.124L36.0733 45.0088C35.6559 43.8885 34.9537 42.8965 34.0359 42.1306L33.5406 41.7173L32.9593 41.1324C32.6329 40.4892 32.9787 39.939 33.6299 40.2489C34.9686 40.8862 36.9145 42.2932 38.0066 43.4717C39.5711 45.1599 43.082 46.4941 44.9708 46.4956C53.7286 46.5029 53.1206 42.8184 55.4482 35.0254Z" fill="#7C5600"/>
</svg>
