<svg width="75" height="75" viewBox="0 0 75 75" fill="none" xmlns="http://www.w3.org/2000/svg">
<g style="mix-blend-mode:multiply">
<circle cx="34.5264" cy="28.8882" r="22.2881" fill="#E2F4FE" fill-opacity="0.75"/>
</g>
<g style="mix-blend-mode:multiply" opacity="0.834287">
<path d="M49.9736 35.4243C49.9736 35.4243 59.3174 40.6505 55.8104 68.3085H60.0549C60.0549 68.3085 61.3156 40.9259 52.9348 36.1447L49.9736 35.4243Z" fill="#FFDD6A"/>
</g>
<g style="mix-blend-mode:multiply" opacity="0.85">
<path d="M51.4073 26.519C51.4073 26.519 46.1053 28.5743 49.9729 35.4243L51.4073 34.7064L50.2773 35.8413L52.3824 38.7401L53.9552 38.229L52.8905 39.7866L55.0198 42.1221L55.6973 41.6873L55.4554 42.5086C55.4554 42.5086 57.5842 44.489 58.4799 43.9576L51.4073 26.519Z" fill="#2B7285"/>
</g>
<g style="mix-blend-mode:multiply" opacity="0.85">
<path d="M51.4072 26.5189C51.4072 26.5189 56.5064 25.9811 58.8322 30.4033L56.9623 31.1725H58.4785L59.425 35.6909L57.3756 36.1919H59.5775V36.5161L55.8062 37.062L59.7086 37.4326C59.7086 37.4326 60.6058 42.5607 58.4785 43.9574L51.4072 26.5189Z" fill="#2B7285"/>
</g>
<g style="mix-blend-mode:multiply" opacity="0.85">
<path d="M51.0293 27.8085L61.3148 13.7703C61.3148 13.7703 62.3737 15.4081 61.5863 17.23H60.2507L61.355 17.7412L60.5357 20.3101L58.3807 20.4154L60.2507 21.7387L59.0752 23.9351L56.3129 23.3495L58.689 24.8521C58.6885 24.8526 55.2192 30.7585 51.0293 27.8085Z" fill="#2B7285"/>
</g>
<g style="mix-blend-mode:multiply" opacity="0.71">
<path d="M51.03 27.8084C51.03 27.8084 47.2239 25.284 50.8766 20.6183L51.9587 21.5382L51.2715 20.0487L56.4539 15.6516L58.0504 16.8073L57.6226 14.7752C57.6226 14.7752 59.1165 13.3291 61.315 13.7702L51.03 27.8084Z" fill="#2B7285"/>
</g>
<g style="mix-blend-mode:multiply" opacity="0.85">
<path d="M50.0856 27.8084C50.0856 27.8084 50.1654 21.7643 45.1809 20.1849L44.4371 22.0406V19.8414L41.2218 18.5364L40.5613 20.5037L39.559 18.319C39.559 18.319 33.9691 16.384 32.7051 18.319L50.0856 27.8084Z" fill="#2B7285"/>
</g>
<g style="mix-blend-mode:multiply" opacity="0.85">
<path d="M50.0354 27.2189C50.0354 27.2189 45.7129 23.5282 41.4993 30.1714L42.8117 31.0927L41.2752 30.6362L39.714 33.8592L40.9089 35.0009L39.0307 34.8013L37.9782 37.779L38.6823 38.1693L37.8436 38.3452C37.8436 38.3452 37.1037 41.1547 37.9961 41.691L50.0354 27.2189Z" fill="#2B7285"/>
</g>
<g style="mix-blend-mode:multiply" opacity="0.58">
<path d="M50.0354 27.219C50.0354 27.219 52.923 31.4484 50.1225 35.5875L48.5589 34.3067L49.2766 35.6407L45.7381 38.611L44.3264 37.0461L45.3683 38.9821L45.0823 39.1357L42.8151 36.0774L44.3361 39.6846C44.3361 39.6846 40.2357 42.9008 37.9961 41.6911L50.0354 27.219Z" fill="#2B7285"/>
</g>
<g style="mix-blend-mode:multiply" opacity="0.85">
<path d="M53.2701 28.6606L70.5247 31.0623C70.5247 31.0623 69.581 32.7683 67.6008 32.9384L66.9688 31.7634L67.0399 32.9766L64.3851 33.4723L63.273 31.6271L62.9904 33.8979L60.4957 33.9037L59.7049 31.1971L59.5031 33.9979C59.5031 33.9979 52.6506 33.7414 53.2701 28.6606Z" fill="#2B7285"/>
</g>
<g style="mix-blend-mode:multiply" opacity="0.85">
<path d="M53.2705 28.6607C53.2705 28.6607 53.6973 24.1187 59.5423 25.1227L59.2427 26.5098L60.2309 25.201L66.5637 27.6775L66.3004 29.6285L67.8906 28.2907C67.8906 28.2907 69.8738 28.9202 70.5247 31.062L53.2705 28.6607Z" fill="#2B7285"/>
</g>
<path d="M11.752 28.5395L14.7141 27.7131L19.2336 28.0758L14.5784 29.3731L11.752 28.5395Z" fill="#2B7285"/>
<path opacity="0.6" d="M11.752 28.5395L14.7141 27.7131L19.2336 28.0758L14.5784 29.3731L11.752 28.5395Z" fill="#00C4A3"/>
<path d="M4.5 30.6061L8.73345 29.4252L11.0411 30.0433L28.2499 25.246C28.2499 25.246 30.8602 24.7891 30.957 25.6564L8.73345 31.8154L4.5 30.6061Z" fill="#00C4A3"/>
<path d="M28.9028 27.2731L10.4242 32.4239L8.73346 31.8149L31.0208 25.603C31.0208 25.6035 31.5822 26.5266 28.9028 27.2731Z" fill="#2B7285"/>
<path d="M28.9028 27.2731L10.4242 32.4239L8.73346 31.8149L31.0208 25.603C31.0208 25.6035 31.5822 26.5266 28.9028 27.2731Z" fill="#00A585"/>
<path opacity="0.7" d="M13.2285 33.7139L16.1906 32.8895L25.3017 26.9243L18.8121 28.7339L13.2285 33.7139Z" fill="#00C4A3"/>
<path opacity="0.602353" d="M46.3693 27.2278C47.2205 26.9465 47.9794 26.8985 48.5894 26.9856L48.6507 26.9949C48.7076 27.0042 48.7513 27.0131 48.7811 27.0203L48.7948 27.0238L48.7457 27.2102L48.7009 27.2001C48.6618 27.1921 48.6154 27.1839 48.5621 27.1763C47.9802 27.0933 47.2509 27.1394 46.4298 27.4108C45.234 27.8059 44.0562 28.62 42.9509 29.9517L42.8817 30.036L42.8127 30.1215L42.6621 30.0012C42.7087 29.9428 42.7556 29.8853 42.8026 29.8287C43.9307 28.4695 45.1388 27.6344 46.3693 27.2278Z" fill="white"/>
<path opacity="0.602353" d="M35.0757 18.9165L46.136 24.9494L46.0437 25.1186L34.9834 19.0857L35.0757 18.9165Z" fill="white"/>
</svg>
