<svg width="75" height="75" viewBox="0 0 75 75" fill="none" xmlns="http://www.w3.org/2000/svg">
<g style="mix-blend-mode:multiply" opacity="0.75">
<path d="M21.2664 43.6501H53.2855L53.8498 44.1001V63.7501H20.6998V44.1001L21.2664 43.6501Z" fill="#00C5A3"/>
</g>
<g style="mix-blend-mode:multiply" opacity="0.8">
<rect x="33" y="47.55" width="8.55" height="15.6" fill="#00C5A3"/>
</g>
<g style="mix-blend-mode:multiply" opacity="0.8">
<path d="M24 50.775C24 48.9939 25.4439 47.55 27.225 47.55C29.0061 47.55 30.45 48.9939 30.45 50.775V55.95H24V50.775Z" fill="#00C5A3"/>
</g>
<g style="mix-blend-mode:multiply" opacity="0.8">
<path d="M44.1002 50.7751C44.1002 48.9939 45.5441 47.55 47.3252 47.55C49.1063 47.55 50.5502 48.9939 50.5502 50.7751V55.95H44.1002V50.7751Z" fill="#00C5A3"/>
</g>
<g style="mix-blend-mode:multiply">
<rect x="34.1998" y="48.9001" width="2.7" height="3.59999" fill="#00C5A3"/>
</g>
<g style="mix-blend-mode:multiply">
<path d="M24.9 50.5501C24.9 49.4731 25.773 48.6001 26.85 48.6001V51.4501H24.9V50.5501Z" fill="#00C5A3"/>
</g>
<g style="mix-blend-mode:multiply">
<path d="M45 50.5501C45 49.4731 45.873 48.6001 46.95 48.6001V51.4501H45V50.5501Z" fill="#00C5A3"/>
</g>
<g style="mix-blend-mode:multiply">
<rect x="24.9" y="52.2001" width="1.95" height="2.84999" fill="#00C5A3"/>
</g>
<g style="mix-blend-mode:multiply">
<rect x="45" y="52.2001" width="1.95" height="2.84999" fill="#00C5A3"/>
</g>
<g style="mix-blend-mode:multiply">
<rect x="37.8" y="48.9001" width="2.7" height="3.59999" fill="#00C5A3"/>
</g>
<g style="mix-blend-mode:multiply">
<path d="M27.6002 48.6001C28.6771 48.6001 29.5502 49.4731 29.5502 50.5501V51.4501H27.6002V48.6001Z" fill="#00C5A3"/>
</g>
<g style="mix-blend-mode:multiply">
<path d="M47.6998 48.6001C48.7768 48.6001 49.6498 49.4731 49.6498 50.5501V51.4501H47.6998V48.6001Z" fill="#00C5A3"/>
</g>
<g style="mix-blend-mode:multiply">
<rect x="27.6002" y="52.2001" width="1.95" height="2.84999" fill="#00C5A3"/>
</g>
<g style="mix-blend-mode:multiply">
<rect x="47.6998" y="52.2001" width="1.95" height="2.84999" fill="#00C5A3"/>
</g>
<g style="mix-blend-mode:multiply">
<rect x="34.1998" y="53.1001" width="2.7" height="3.75" fill="#00C5A3"/>
</g>
<g style="mix-blend-mode:multiply">
<rect x="37.8" y="53.1001" width="2.7" height="3.75" fill="#00C5A3"/>
</g>
<g style="mix-blend-mode:multiply" opacity="0.7">
<path d="M37.2748 30.9001L53.8498 44.1002H20.6998L37.2748 30.9001Z" fill="#00C5A3"/>
</g>
<ellipse opacity="0.11" cx="37.2" cy="64.125" rx="31.05" ry="2.325" fill="#2B7285"/>
<g style="mix-blend-mode:multiply">
<path d="M24.8911 25.4263C24.3317 27.1211 22.0567 29.384 20.352 28.8389C18.6474 28.2937 18.1584 25.147 18.7178 23.4522C19.2785 21.758 21.1151 20.8276 22.8192 21.3742C24.5215 21.92 25.4483 23.7331 24.8911 25.4263Z" fill="#00C5A3"/>
</g>
<path opacity="0.321661" d="M20.0113 28.5933L20.1254 28.5885L20.13 28.6269C20.1334 28.6578 20.1371 28.6938 20.1408 28.7346C20.1514 28.8508 20.1604 28.982 20.1664 29.1257C20.1836 29.536 20.1741 29.9638 20.1278 30.3878C19.9893 31.6554 19.5587 32.6233 18.7425 33.0992L18.7121 33.1166C17.9268 33.5576 17.823 34.6149 18.2173 36.0644C18.3516 36.5583 18.5351 37.0623 18.745 37.5492C18.8185 37.7197 18.8899 37.8758 18.9566 38.0141L18.996 38.095L19.0418 38.186L18.9417 38.2349L18.9182 38.1888C18.9033 38.159 18.8866 38.1253 18.8684 38.0879L18.8545 38.0592C18.7871 37.9191 18.7148 37.7613 18.6405 37.5891C18.4284 37.0968 18.2428 36.5871 18.1066 36.0865C17.7037 34.6054 17.8063 33.5049 18.625 33.0245L18.65 33.0101C19.4506 32.5605 19.8766 31.6146 20.0133 30.3632C20.0589 29.9457 20.0683 29.524 20.0513 29.1194C20.0454 28.9779 20.0366 28.8487 20.0261 28.7344L20.0197 28.6678L20.0113 28.5933Z" fill="#2B7285"/>
<g style="mix-blend-mode:multiply">
<path d="M16.8248 27.4823C17.4746 28.9929 17.2675 31.9216 15.7335 32.5612C14.1992 33.2011 11.9189 31.3089 11.2691 29.7988C10.6194 28.2887 11.3366 26.5457 12.8706 25.9061C14.4049 25.2667 16.1751 25.9722 16.8248 27.4823Z" fill="#FE635A"/>
</g>
<ellipse opacity="0.4" cx="0.631689" cy="0.756803" rx="0.631689" ry="0.756803" transform="matrix(-0.926195 0.388931 -0.390896 -0.915385 15.5986 27.4249)" fill="white"/>
<ellipse opacity="0.4" cx="0.766373" cy="0.904828" rx="0.766373" ry="0.904828" transform="matrix(-0.986082 0.166262 -0.172566 -0.984998 24.1739 25.0326)" fill="white"/>
<g style="mix-blend-mode:multiply">
<path d="M27.7385 32.7368C27.0898 34.2328 24.8509 36.1125 23.3654 35.4859C21.8803 34.8594 21.7108 31.9639 22.3592 30.4679C23.0077 28.9719 24.7378 28.2672 26.2229 28.894C27.7081 29.5203 28.3869 31.2409 27.7385 32.7368Z" fill="#FFDD6A"/>
</g>
<ellipse opacity="0.4" cx="0.660552" cy="0.781777" rx="0.660552" ry="0.781777" transform="matrix(-0.935123 0.354322 -0.359498 -0.933146 27.4474 31.609)" fill="white"/>
<path opacity="0.362095" d="M23.1548 35.2091L23.2048 35.298L23.1806 35.3186L23.1657 35.3317C23.1337 35.36 23.0972 35.3934 23.0571 35.4317C22.9422 35.5413 22.821 35.6678 22.6992 35.8094C22.2271 36.3581 21.884 36.965 21.7646 37.5986C21.7274 37.7958 21.7131 37.9924 21.7232 38.188L21.7259 38.2332C21.7413 38.4504 21.7274 38.6686 21.6864 38.887C21.5622 39.5488 21.2025 40.1744 20.7076 40.737C20.5798 40.8824 20.4523 41.0122 20.3312 41.1247L20.29 41.1625C20.2767 41.1746 20.2639 41.1861 20.2515 41.197L20.2159 41.2281C20.2011 41.2407 20.1894 41.2506 20.181 41.2575L20.1726 41.2644L20.1239 41.1744L20.1423 41.1593C20.1484 41.1541 20.1557 41.1479 20.1641 41.1407L20.1986 41.1106C20.2226 41.0895 20.2484 41.0661 20.2759 41.0405C20.3941 40.9307 20.5185 40.804 20.6434 40.662C21.1236 40.116 21.4714 39.5112 21.5903 38.8779C21.6264 38.6853 21.6403 38.4931 21.6305 38.3015L21.6278 38.2573C21.6121 38.0357 21.6264 37.8128 21.6684 37.5894C21.7931 36.9279 22.1477 36.3007 22.634 35.7354C22.7587 35.5905 22.8828 35.461 23.0006 35.3486C23.035 35.3158 23.0669 35.2864 23.0958 35.2605L23.1413 35.2205L23.1548 35.2091Z" fill="#2B7285"/>
<path opacity="0.362095" d="M15.3065 32.4424L15.4189 32.467L15.4161 32.5021L15.4146 32.524C15.4116 32.5712 15.4092 32.6258 15.4077 32.687C15.4036 32.8622 15.408 33.055 15.4242 33.2594C15.4868 34.0519 15.7008 34.7815 16.1174 35.3472C16.247 35.5232 16.3946 35.68 16.5612 35.8161L16.6 35.8472C16.7884 35.9949 16.9539 36.1673 17.0976 36.3622C17.5331 36.9526 17.7488 37.7095 17.8043 38.5309C17.8186 38.7432 17.8206 38.9436 17.8138 39.1261L17.8112 39.1878C17.8102 39.2076 17.8091 39.2266 17.8079 39.2448L17.8043 39.297C17.8026 39.3185 17.8011 39.3354 17.7999 39.3474L17.7987 39.3594L17.6865 39.3329L17.6891 39.3067C17.6898 39.2978 17.6907 39.2872 17.6917 39.275L17.6952 39.2245C17.6974 39.1893 17.6994 39.1508 17.7009 39.1093C17.7076 38.9313 17.7055 38.7356 17.6916 38.5283C17.6378 37.7312 17.4291 36.9993 17.0124 36.4343C16.8857 36.2625 16.7413 36.1093 16.5782 35.976L16.5402 35.9456C16.348 35.7949 16.179 35.6186 16.0322 35.4192C15.5972 34.8288 15.3761 34.0747 15.3116 33.2584C15.295 33.0491 15.2905 32.8517 15.2948 32.672C15.296 32.6195 15.298 32.5717 15.3004 32.5289L15.3048 32.4619L15.3065 32.4424Z" fill="#2B7285"/>
<g style="mix-blend-mode:multiply" opacity="0.55">
<ellipse cx="57.7855" cy="19.713" rx="8.12432" ry="8.19931" transform="rotate(-150 57.7855 19.713)" fill="#FFDB94"/>
</g>
<g style="mix-blend-mode:multiply" opacity="0.427037">
<path fill-rule="evenodd" clip-rule="evenodd" d="M60.1517 64.1339C60.1517 64.1339 62.7606 62.7101 62.3201 59.7162C61.8795 56.7223 64.0155 53.8111 64.0155 53.8111C64.0155 53.8111 59.3409 54.5031 58.8232 58.266C58.3055 62.0289 60.1517 64.1339 60.1517 64.1339Z" fill="#00C5A3"/>
</g>
<g style="mix-blend-mode:multiply" opacity="0.427037">
<path fill-rule="evenodd" clip-rule="evenodd" d="M55.0034 57.1367C55.0034 57.1367 57.3153 58.7339 57.0123 60.7111C56.7092 62.6883 59.9654 64.0861 59.9654 64.0861C59.9654 64.0861 60.1273 56.1543 55.0034 57.1367Z" fill="#00C5A3"/>
</g>
<g style="mix-blend-mode:multiply" opacity="0.427037">
<path fill-rule="evenodd" clip-rule="evenodd" d="M65.6963 57.4945C65.6963 57.4945 63.3622 59.0162 63.649 60.9869C63.9357 62.9575 60.3162 64.1468 60.3162 64.1468C60.3162 64.1468 60.5631 56.3791 65.6963 57.4945Z" fill="#00C5A3"/>
</g>
<g style="mix-blend-mode:multiply">
<path fill-rule="evenodd" clip-rule="evenodd" d="M37.1999 29.1001L56.0999 44.1001H53.1754L37.1999 31.4214L21.2595 44.1001H18.2999L37.1999 29.1001Z" fill="#00C5A3"/>
</g>
<g style="mix-blend-mode:multiply" opacity="0.75">
<path fill-rule="evenodd" clip-rule="evenodd" d="M37.1999 29.1001L56.0999 44.1001H53.1754L37.1999 31.4214L21.2595 44.1001H18.2999L37.1999 29.1001Z" fill="#00C5A3"/>
</g>
<g style="mix-blend-mode:multiply">
<circle cx="37.2748" cy="38.4751" r="2.5" fill="#00C5A3"/>
<circle cx="37.2748" cy="38.4751" r="2.5" stroke="#00C5A3" stroke-width="1.15"/>
</g>
<mask id="mask0_1_221" style="mask-type:alpha" maskUnits="userSpaceOnUse" x="35" y="36" width="5" height="5">
<g style="mix-blend-mode:multiply">
<ellipse cx="37.2748" cy="38.4751" rx="2.15904" ry="2.15904" fill="#00C5A3"/>
</g>
</mask>
<g mask="url(#mask0_1_221)">
<g style="mix-blend-mode:multiply">
<mask id="path-36-inside-1_1_221" fill="white">
<path fill-rule="evenodd" clip-rule="evenodd" d="M37.2748 40.6341C38.4672 40.6341 39.4338 39.6675 39.4338 38.4751C39.4338 37.2827 38.4672 36.316 37.2748 36.316C36.0824 36.316 35.1158 37.2827 35.1158 38.4751C35.1158 39.6675 36.0824 40.6341 37.2748 40.6341ZM246.319 237.745H251.204V254.32H268.128V259.205H251.204V276.128H246.319V259.205H229.745V254.32H246.319V237.745Z"/>
</mask>
<path fill-rule="evenodd" clip-rule="evenodd" d="M37.2748 40.6341C38.4672 40.6341 39.4338 39.6675 39.4338 38.4751C39.4338 37.2827 38.4672 36.316 37.2748 36.316C36.0824 36.316 35.1158 37.2827 35.1158 38.4751C35.1158 39.6675 36.0824 40.6341 37.2748 40.6341ZM246.319 237.745H251.204V254.32H268.128V259.205H251.204V276.128H246.319V259.205H229.745V254.32H246.319V237.745Z" fill="#00C5A3"/>
<path d="M251.204 237.745H256.204V232.745H251.204V237.745ZM246.319 237.745V232.745H241.319V237.745H246.319ZM251.204 254.32H246.204V259.32H251.204V254.32ZM268.128 254.32H273.128V249.32H268.128V254.32ZM268.128 259.205V264.205H273.128V259.205H268.128ZM251.204 259.205V254.205H246.204V259.205H251.204ZM251.204 276.128V281.128H256.204V276.128H251.204ZM246.319 276.128H241.319V281.128H246.319V276.128ZM246.319 259.205H251.319V254.205H246.319V259.205ZM229.745 259.205H224.745V264.205H229.745V259.205ZM229.745 254.32V249.32H224.745V254.32H229.745ZM246.319 254.32V259.32H251.319V254.32H246.319ZM34.4338 38.4751C34.4338 36.9061 35.7058 35.6341 37.2748 35.6341V45.6341C41.2286 45.6341 44.4338 42.4289 44.4338 38.4751H34.4338ZM37.2748 41.316C35.7058 41.316 34.4338 40.0441 34.4338 38.4751H44.4338C44.4338 34.5212 41.2286 31.316 37.2748 31.316V41.316ZM40.1158 38.4751C40.1158 40.0441 38.8438 41.316 37.2748 41.316V31.316C33.321 31.316 30.1158 34.5212 30.1158 38.4751H40.1158ZM37.2748 35.6341C38.8438 35.6341 40.1158 36.9061 40.1158 38.4751H30.1158C30.1158 42.4289 33.321 45.6341 37.2748 45.6341V35.6341ZM251.204 232.745H246.319V242.745H251.204V232.745ZM256.204 254.32V237.745H246.204V254.32H256.204ZM268.128 249.32H251.204V259.32H268.128V249.32ZM273.128 259.205V254.32H263.128V259.205H273.128ZM251.204 264.205H268.128V254.205H251.204V264.205ZM256.204 276.128V259.205H246.204V276.128H256.204ZM246.319 281.128H251.204V271.128H246.319V281.128ZM241.319 259.205V276.128H251.319V259.205H241.319ZM229.745 264.205H246.319V254.205H229.745V264.205ZM224.745 254.32V259.205H234.745V254.32H224.745ZM246.319 249.32H229.745V259.32H246.319V249.32ZM241.319 237.745V254.32H251.319V237.745H241.319Z" fill="#00C5A3" mask="url(#path-36-inside-1_1_221)"/>
</g>
</g>
</svg>
