<svg width="48" height="49" viewBox="0 0 48 49" fill="none" xmlns="http://www.w3.org/2000/svg">
<ellipse cx="36.0832" cy="6.10324" rx="5.5455" ry="5.54551" fill="#FFDD6A"/>
<mask id="path-2-inside-1_4684_22" fill="white">
<ellipse cx="36.1167" cy="6.1368" rx="3.63326" ry="3.63326"/>
</mask>
<path d="M33.7499 6.1368C33.7499 4.82969 34.8095 3.77006 36.1167 3.77006V15.7701C41.437 15.7701 45.7499 11.4571 45.7499 6.1368H33.7499ZM36.1167 3.77006C37.4238 3.77006 38.4834 4.82969 38.4834 6.1368H26.4834C26.4834 11.4571 30.7964 15.7701 36.1167 15.7701V3.77006ZM38.4834 6.1368C38.4834 7.44392 37.4238 8.50354 36.1167 8.50354V-3.49646C30.7964 -3.49646 26.4834 0.816498 26.4834 6.1368H38.4834ZM36.1167 8.50354C34.8095 8.50354 33.7499 7.44392 33.7499 6.1368H45.7499C45.7499 0.816498 41.437 -3.49646 36.1167 -3.49646V8.50354Z" fill="#F8C30F" mask="url(#path-2-inside-1_4684_22)"/>
<g style="mix-blend-mode:multiply" opacity="0.9">
<path fill-rule="evenodd" clip-rule="evenodd" d="M41.9292 28.7627C40.5745 28.7723 39.2622 29.3577 38.726 30.3189L37.8965 29.8573C38.6599 28.4888 40.3721 27.8253 41.9224 27.8143C43.3786 27.8039 44.9421 28.3767 45.5374 29.7685C47.145 30.2182 48.2392 32.031 47.7496 33.9869L46.8284 33.7569C47.1443 32.4947 46.5956 31.3996 45.7771 30.9004C45.7779 30.9312 45.7783 30.9622 45.7783 30.9934C45.7783 32.0455 45.448 32.9384 44.8644 33.4661C44.5689 33.7332 44.2085 33.9043 43.8102 33.9371C43.4117 33.9699 43.0098 33.8615 42.6348 33.6274C42.0459 33.2598 41.9433 32.5091 42.0282 31.9283C42.1175 31.3167 42.4378 30.6451 43.0026 30.2503C43.4502 29.9373 43.9191 29.7554 44.3836 29.6905C43.876 29.0846 42.9733 28.7552 41.9292 28.7627ZM44.7993 30.6118C44.4032 30.6067 43.9754 30.7279 43.5472 31.0272C43.2487 31.2359 43.0296 31.6421 42.9678 32.0651C42.9015 32.5189 43.0363 32.7597 43.1381 32.8232C43.3641 32.9643 43.5647 33.0057 43.7322 32.9919C43.8998 32.9781 44.0686 32.9063 44.2271 32.763C44.5515 32.4696 44.8287 31.8714 44.8287 30.9934C44.8287 30.8581 44.8185 30.7311 44.7993 30.6118Z" fill="#FE635A"/>
<path d="M21.5433 7.73597L24.1389 11.9936C24.1812 11.9933 24.2236 11.9931 24.266 11.9931C33.6581 11.9931 41.272 19.5975 41.272 28.9781C41.272 33.7014 39.3416 36.0777 36.2258 39.1563L36.2394 39.1518C36.2194 39.1685 36.1995 39.1851 36.1797 39.2016C35.8243 39.5502 35.4536 39.8833 35.0687 40.1998C33.4042 41.851 32.9557 43.3298 33.995 46.2648H28.2973C28.2742 43.5705 26.0801 41.3935 23.377 41.3935C21.1562 41.3935 19.2789 42.863 18.6669 44.8815C18.4892 45.3482 18.4177 45.833 18.4133 46.2648H12.9749C12.5956 43.448 11.5576 41.2688 10.6507 39.7608C8.45934 36.117 4.22309 33.7101 0.846153 31.3491L0.846163 22.8135C0.846163 22.8135 4.50158 24.3224 7.692 20.4856C8.89585 19.0379 10.0997 17.8485 11.2827 16.8699C11.2832 16.8446 11.2859 16.8188 11.2911 16.7925L12.8305 8.98471C12.8972 8.6462 13.3153 8.51925 13.5594 8.76335L17.9461 13.1499C17.9694 13.1424 17.9927 13.1349 18.016 13.1275L20.4785 7.79699C20.6811 7.35841 21.2918 7.32341 21.5433 7.73597Z" fill="#FE635A"/>
</g>
<g style="mix-blend-mode:multiply" opacity="0.8">
<path fill-rule="evenodd" clip-rule="evenodd" d="M26.081 15.9988C25.2892 15.8797 24.7365 15.8827 24.4981 15.9231L24.2385 14.3897C24.7164 14.3088 25.4592 14.3326 26.3123 14.4609C27.1855 14.5922 28.2348 14.8423 29.3442 15.2543C31.5584 16.0767 34.061 17.5639 35.8517 20.0956L34.582 20.9937C33.0223 18.7886 30.8169 17.4604 28.8027 16.7122C27.7978 16.339 26.8528 16.1149 26.081 15.9988Z" fill="#D88F8B"/>
</g>
<rect x="22.7971" y="23.2019" width="2.88828" height="12.3619" fill="#FFFBF0"/>
<rect x="30.5377" y="27.9386" width="2.77275" height="12.3619" transform="rotate(90 30.5377 27.9386)" fill="#FFFBF0"/>
<g style="mix-blend-mode:multiply" opacity="0.8">
<ellipse cx="11.9371" cy="21.5266" rx="1.15531" ry="2.13733" fill="#D88F8B"/>
</g>
<path opacity="0.12" fill-rule="evenodd" clip-rule="evenodd" d="M4.01923 46.4231C4.01923 47.3789 12.543 48.1538 23.0577 48.1538C33.5722 48.1538 42.0962 47.3789 42.0962 46.4231C42.0962 45.467 33.5722 44.6923 23.0577 44.6923C12.543 44.6923 4.01923 45.467 4.01923 46.4231Z" fill="#2B7285"/>
</svg>
