<svg width="76" height="76" viewBox="0 0 76 76" fill="none" xmlns="http://www.w3.org/2000/svg">
<g style="mix-blend-mode:multiply" opacity="0.55">
<ellipse cx="37.9067" cy="31.1" rx="24.375" ry="24.6" fill="#FFDB94"/>
</g>
<g style="mix-blend-mode:multiply" opacity="0.7">
<path d="M37.9817 28.4L56.558 66.2H19.4055L37.9817 28.4Z" fill="#00C5A3"/>
</g>
<path opacity="0.7" d="M35.1319 36.2L34.7569 34.925L37.9819 28.4L41.6569 35.825L39.8569 34.025L39.1069 35.525L38.0569 34.025L37.2319 36.2L36.4069 34.475L35.1319 36.2Z" fill="#FFFBF0"/>
<g style="mix-blend-mode:multiply">
<path d="M48.2002 19.0528L38.0913 22.8228L38.0592 15.3701L48.2002 19.0528Z" fill="#FE635A"/>
</g>
<g style="mix-blend-mode:multiply" opacity="0.5">
<path d="M20.4213 40.25L34.6605 66.2375H5.43213L20.4213 40.25Z" fill="#8DCEC3"/>
</g>
<g style="mix-blend-mode:multiply" opacity="0.5">
<path d="M57.501 49.25L68.7321 66.2H46.6821L57.501 49.25Z" fill="#8DCEC3"/>
</g>
<g style="mix-blend-mode:multiply" opacity="0.7">
<rect x="37.6821" y="15.35" width="0.600002" height="13.65" fill="#2B7285"/>
</g>
<path opacity="0.4" d="M50.2069 66.275L33.0319 59.75L46.5319 52.175L31.9819 49.775L43.0819 44.45L35.0569 40.025L40.7569 37.025L36.9319 33.35L37.9819 29.225" stroke="#E2F4FE" stroke-width="3" stroke-linecap="round" stroke-linejoin="round"/>
<circle opacity="0.4" cx="33.1071" cy="59.825" r="0.674999" fill="#E2F4FE"/>
<ellipse opacity="0.4" cx="46.4567" cy="52.175" rx="0.674999" ry="0.675001" fill="#E2F4FE"/>
<ellipse opacity="0.4" cx="31.9069" cy="49.775" rx="0.674999" ry="0.675001" fill="#E2F4FE"/>
<circle opacity="0.4" cx="43.1569" cy="44.375" r="0.675001" fill="#E2F4FE"/>
<circle opacity="0.4" cx="35.0569" cy="39.875" r="0.675001" fill="#E2F4FE"/>
<ellipse opacity="0.4" cx="40.9069" cy="37.025" rx="0.675001" ry="0.674999" fill="#E2F4FE"/>
<path opacity="0.8" d="M17.5069 50.15L16.2319 47.525L20.4319 40.25L25.3069 49.175L22.7569 47.675L21.4819 50.45L19.3069 47.675L17.5069 50.15Z" fill="#FFFBF0"/>
<path opacity="0.8" d="M54.4067 55.925L54.0317 54.575L57.4817 49.25L61.6817 55.55L58.9067 54.125L57.4817 56.225L56.4317 53.975L54.4067 55.925Z" fill="#FFFBF0"/>
</svg>
